<svg id="Calque_1" data-name="Calque 1" xmlns="http://www.w3.org/2000/svg" viewBox="0 0 777.7 143.09"><defs><style>.cls-1{fill:#f9a51a;}.cls-2{fill:#5f686a;}.cls-3{fill:none;}</style></defs><g id="Logo"><path class="cls-1" d="M183.55,46.7a33.38,33.38,0,0,1,48.37,7.36l25.29-17.23a63.82,63.82,0,0,0-52.9-28,64.79,64.79,0,0,0-20.76,3.52Z" transform="translate(-5 -8.71)"/><path class="cls-2" d="M231.82,91.64a33.37,33.37,0,0,1-61-18.74V18.29A64,64,0,1,0,257.21,109Z" transform="translate(-5 -8.71)"/><path class="cls-1" d="M305.38,46.7a33.32,33.32,0,1,1,40.91,52.6L360,127A64,64,0,0,0,305.28,12.24V46.7Z" transform="translate(-5 -8.71)"/><path class="cls-2" d="M323.92,151.8h34.26L335,105.05a32.66,32.66,0,0,1-8.86,1.2A33.33,33.33,0,0,1,292.78,72.9V18.29a64,64,0,0,0,23.48,117.79Z" transform="translate(-5 -8.71)"/><polygon class="cls-1" points="61.77 1.92 53.91 17.73 107.92 126.36 142.18 126.36 80.31 1.92 61.77 1.92"/><polygon class="cls-2" points="34.26 126.36 40.51 113.76 86.36 113.76 73.96 88.67 52.9 88.67 63.38 67.61 46.35 33.05 4.33 117.69 0 126.36 34.26 126.36"/><path class="cls-2" d="M469.62,43.68H458.74l-1.61,4.23h-5.64l9.37-24.28h6.55l9.37,24.28H471ZM460.15,39h8.06l-4-11.08Z" transform="translate(-5 -8.71)"/><path class="cls-2" d="M480,40.35a10.65,10.65,0,0,0,7.76,3.23c2.92,0,4.23-1.31,4.23-2.72,0-1.82-2.11-2.52-4.93-3.13-3.93-.9-9.17-1.91-9.17-7.45,0-4,3.52-7.36,9.27-7.36a13.89,13.89,0,0,1,9.57,3.43l-2.92,3.83a10.15,10.15,0,0,0-6.95-2.62c-2.42,0-3.53,1-3.53,2.52,0,1.71,2.11,2.11,4.84,2.72,4,.9,9.17,2.11,9.17,7.55,0,4.44-3.13,7.86-9.78,7.86a14.18,14.18,0,0,1-10.38-3.93Z" transform="translate(-5 -8.71)"/><path class="cls-2" d="M502,40.35a10.61,10.61,0,0,0,7.76,3.23c2.92,0,4.23-1.31,4.23-2.72,0-1.82-2.11-2.52-4.94-3.13-3.93-.9-9.17-1.91-9.17-7.45,0-4,3.53-7.36,9.27-7.36a13.91,13.91,0,0,1,9.58,3.43l-2.93,3.83a10.12,10.12,0,0,0-6.95-2.62c-2.42,0-3.52,1-3.52,2.52,0,1.71,2.11,2.11,4.83,2.72,4,.9,9.17,2.11,9.17,7.55,0,4.44-3.12,7.86-9.77,7.86a14.18,14.18,0,0,1-10.38-3.93Z" transform="translate(-5 -8.71)"/><path class="cls-2" d="M534.21,23c7.36,0,12.8,5.24,12.8,12.6s-5.34,12.59-12.8,12.59S521.52,43,521.52,35.62,526.76,23,534.21,23Zm0,4.64c-4.43,0-7.35,3.42-7.35,8s2.92,8,7.35,8,7.46-3.53,7.46-8S538.65,27.66,534.21,27.66Z" transform="translate(-5 -8.71)"/><path class="cls-2" d="M549.43,35.62c0-7.46,5.64-12.6,12.8-12.6a11.29,11.29,0,0,1,10.38,6.05l-4.44,2.22a6.72,6.72,0,0,0-5.84-3.53c-4.23,0-7.46,3.42-7.46,8s3.23,8,7.46,8a6.6,6.6,0,0,0,5.84-3.53l4.44,2.12a11.35,11.35,0,0,1-10.38,6C555.17,48.21,549.43,43.08,549.43,35.62Z" transform="translate(-5 -8.71)"/><path class="cls-2" d="M575.73,23.33H581V47.61h-5.24Z" transform="translate(-5 -8.71)"/><path class="cls-2" d="M601.22,43.68H590.34l-1.61,4.23H583l9.38-24.28h6.55l9.37,24.28h-5.65ZM591.75,39h8.06l-4-11.08Z" transform="translate(-5 -8.71)"/><path class="cls-2" d="M614,28h-7V23.43h19.44V28h-7V47.71h-5.24V28Z" transform="translate(-5 -8.71)"/><path class="cls-2" d="M629.74,23.33H635V47.61h-5.24Z" transform="translate(-5 -8.71)"/><path class="cls-2" d="M651.1,23c7.36,0,12.8,5.24,12.8,12.6s-5.34,12.59-12.8,12.59S638.41,43,638.41,35.62A12.31,12.31,0,0,1,651.1,23Zm0,4.64c-4.43,0-7.35,3.42-7.35,8s2.92,8,7.35,8,7.46-3.53,7.46-8S655.74,27.66,651.1,27.66Z" transform="translate(-5 -8.71)"/><path class="cls-2" d="M672.87,31.49V47.81h-5.24V23.33H673l11.28,15.82V23.33h5.24V47.61h-4.93Z" transform="translate(-5 -8.71)"/><path class="cls-2" d="M703.6,23.33h9.57c7.56,0,12.9,4.83,12.9,12.19s-5.34,12.19-12.9,12.19H703.6Zm9.67,20a7.24,7.24,0,0,0,7.56-7.56c0-4.33-2.62-7.56-7.56-7.56h-4.43V43.38C708.74,43.28,713.27,43.28,713.27,43.28Z" transform="translate(-5 -8.71)"/><path class="cls-2" d="M729.8,23.33H747v4.43H735V33.1h11.79v4.43H735v5.65h12v4.43H729.8Z" transform="translate(-5 -8.71)"/><path class="cls-2" d="M451.49,60.1h5.24V79.85h10.38v4.54H451.49Z" transform="translate(-5 -8.71)"/><path class="cls-2" d="M486.15,80.26H475.27l-1.61,4.23h-5.75l9.37-24.28h6.55l9.37,24.28h-5.64Zm-9.57-4.44h8.06l-4-11.08Z" transform="translate(-5 -8.71)"/><path class="cls-2" d="M502.57,72.3c0-7.46,5.65-12.6,12.8-12.6a11.27,11.27,0,0,1,10.38,6L521.32,68a6.75,6.75,0,0,0-5.85-3.52c-4.23,0-7.45,3.42-7.45,8s3.22,8,7.45,8a6.62,6.62,0,0,0,5.85-3.53L525.75,79a11.34,11.34,0,0,1-10.38,6A12.42,12.42,0,0,1,502.57,72.3Z" transform="translate(-5 -8.71)"/><path class="cls-2" d="M540.36,59.7c7.36,0,12.8,5.24,12.8,12.6s-5.34,12.59-12.8,12.59-12.69-5.24-12.69-12.59A12.26,12.26,0,0,1,540.36,59.7Zm0,4.64c-4.43,0-7.35,3.42-7.35,8s2.92,8,7.35,8,7.46-3.53,7.46-8C547.82,67.66,545,64.34,540.36,64.34Z" transform="translate(-5 -8.71)"/><path class="cls-2" d="M562.13,68.06V84.39h-5.24V60.1h5.34l11.28,15.82V60.1h5.24V84.39h-4.93Z" transform="translate(-5 -8.71)"/><path class="cls-2" d="M584.7,77.13a10.61,10.61,0,0,0,7.76,3.23c2.92,0,4.23-1.31,4.23-2.72,0-1.82-2.12-2.52-4.94-3.13-3.93-.9-9.17-1.91-9.17-7.45,0-4,3.53-7.36,9.27-7.36a13.87,13.87,0,0,1,9.57,3.43L598.5,67a10.12,10.12,0,0,0-7-2.62c-2.32,0-3.53,1-3.53,2.52,0,1.71,2.12,2.11,4.84,2.92,4,.9,9.17,2.11,9.17,7.56,0,4.43-3.12,7.85-9.77,7.85a14.17,14.17,0,0,1-10.38-3.93Z" transform="translate(-5 -8.71)"/><path class="cls-2" d="M610.7,64.64h-7.06V60.1h19.45v4.54H616V84.39H610.8V64.64Z" transform="translate(-5 -8.71)"/><path class="cls-2" d="M635.48,75.82h-3.83v8.77h-5.24V60.31H637.8c5.14,0,8.26,3.22,8.26,7.86,0,4.33-2.72,6.65-5.34,7.15l5.44,9.27h-6ZM637,64.54h-5.44v6.65H637a3.34,3.34,0,0,0,3.63-3.43C640.62,65.85,639.11,64.54,637,64.54Z" transform="translate(-5 -8.71)"/><path class="cls-2" d="M650,60.1h5.24V74.61c0,3.43,1.82,5.75,5.65,5.75,3.62,0,5.64-2.32,5.64-5.75V60.1h5.24V74.72c0,6-3.53,10.17-10.88,10.17s-11-4.23-11-10.17V60.1Z" transform="translate(-5 -8.71)"/><path class="cls-2" d="M675.29,72.3c0-7.46,5.64-12.6,12.79-12.6a11.27,11.27,0,0,1,10.38,6L694,68a6.75,6.75,0,0,0-5.85-3.52c-4.23,0-7.45,3.42-7.45,8s3.22,8,7.45,8A6.62,6.62,0,0,0,694,76.83L698.46,79a11.34,11.34,0,0,1-10.38,6A12.41,12.41,0,0,1,675.29,72.3Z" transform="translate(-5 -8.71)"/><path class="cls-2" d="M707.23,64.64h-7.06V60.1h19.35v4.54h-7V84.39h-5.24Z" transform="translate(-5 -8.71)"/><path class="cls-2" d="M723,60.1h5.24V84.39H723Z" transform="translate(-5 -8.71)"/><path class="cls-2" d="M744.51,59.7c7.36,0,12.8,5.24,12.8,12.6S752,84.89,744.51,84.89s-12.7-5.24-12.7-12.59S737.15,59.7,744.51,59.7Zm0,4.64c-4.43,0-7.36,3.42-7.36,8s2.93,8,7.36,8,7.46-3.53,7.46-8C751.77,67.66,748.94,64.34,744.51,64.34Z" transform="translate(-5 -8.71)"/><path class="cls-2" d="M766.07,68.06V84.39h-5.24V60.1h5.34l11.29,15.82V60.1h5.24V84.39h-4.94Z" transform="translate(-5 -8.71)"/><path class="cls-2" d="M451.49,96.88h9.57c7.56,0,12.9,4.84,12.9,12.2s-5.34,12.19-12.9,12.19h-9.57Zm9.57,19.75a7.24,7.24,0,0,0,7.56-7.55c0-4.34-2.62-7.56-7.56-7.56h-4.33v15.21h4.33Z" transform="translate(-5 -8.71)"/><path class="cls-2" d="M477.79,96.88H483v14.51c0,3.43,1.81,5.75,5.64,5.75,3.63,0,5.64-2.32,5.64-5.75V96.88h5.24v14.61c0,6.05-3.52,10.18-10.88,10.18s-11-4.23-11-10.18V96.88Z" transform="translate(-5 -8.71)"/><path class="cls-2" d="M534.82,117.64l1.81,2.12-3.62,3-1.92-2.32a13.26,13.26,0,0,1-5.74,1.21c-7.36,0-12.7-5.24-12.7-12.59s5.34-12.6,12.7-12.6,12.79,5.24,12.79,12.6A14.46,14.46,0,0,1,534.82,117.64Zm-7.15-1-2.73-3.22,3.63-2.92,2.72,3.22a8.77,8.77,0,0,0,1.31-4.53c0-4.54-2.92-8-7.45-8s-7.36,3.42-7.36,8,2.92,8,7.36,8C526.15,116.94,527.06,116.83,527.67,116.63Z" transform="translate(-5 -8.71)"/><path class="cls-2" d="M541.57,96.88h5.24v14.51c0,3.43,1.81,5.75,5.64,5.75,3.63,0,5.65-2.32,5.65-5.75V96.88h5.24v14.61c0,6.05-3.53,10.18-10.89,10.18s-11-4.23-11-10.18V96.88Z" transform="translate(-5 -8.71)"/><path class="cls-2" d="M568.27,96.88H585.5v4.44h-12v5.34H585.3v4.43H573.51v5.64h12v4.44H568.27Zm7.06-2.11,4.83-5.24h4.34l-5.85,5.24Z" transform="translate(-5 -8.71)"/><path class="cls-2" d="M589.53,96.88h12.8c4.54,0,7.06,3,7.06,6.15a5.54,5.54,0,0,1-4.24,5.64,6,6,0,0,1,4.74,6c0,3.63-2.52,6.55-7,6.55h-13.2V97h-.11Zm11.69,9.78a2.76,2.76,0,0,0,2.93-2.72,2.63,2.63,0,0,0-2.93-2.62h-6.55v5.34Zm.2,10.07a2.86,2.86,0,0,0,3.13-2.92,2.81,2.81,0,0,0-3.13-2.92h-6.65v5.74h6.65Z" transform="translate(-5 -8.71)"/><path class="cls-2" d="M613.72,96.88H631v4.44H619v5.34h11.79v4.43H619v5.64h12v4.44H613.72Z" transform="translate(-5 -8.71)"/><path class="cls-2" d="M633.87,109c0-7.46,5.64-12.6,12.8-12.6a11.28,11.28,0,0,1,10.38,6.05l-4.44,2.21a6.72,6.72,0,0,0-5.84-3.52c-4.23,0-7.46,3.42-7.46,8s3.23,8,7.46,8a6.61,6.61,0,0,0,5.84-3.53l4.44,2.12a11.35,11.35,0,0,1-10.38,6A12.42,12.42,0,0,1,633.87,109Z" transform="translate(-5 -8.71)"/><path class="cls-2" d="M534.21,23c7.36,0,12.8,5.24,12.8,12.6s-5.34,12.59-12.8,12.59S521.52,43,521.52,35.62,526.76,23,534.21,23Zm0,4.64c-4.43,0-7.35,3.42-7.35,8s2.92,8,7.35,8,7.46-3.53,7.46-8S538.65,27.66,534.21,27.66Z" transform="translate(-5 -8.71)"/></g><rect class="cls-3" width="777.7" height="143.09"/></svg>