<svg xmlns="http://www.w3.org/2000/svg" fill="none" viewBox="0 0 217 40" role="img" aria-labelledby="apchq-title">
  <title id="apchq-title">APCHQ</title>
  <path fill="#00AFF0" d="m10.416 30.205 10.41 7.551V22.654l-10.41-7.552L0 22.655v15.102zM31.242 15.103l10.416 7.55V7.552L31.242 0 20.827 7.551v15.103zM52.069 30.205l10.415 7.551V22.654L52.07 15.102l-10.411 7.552v15.102z"/>
  <path fill="#FFFFFF" d="m83.445 26.106 4.28-11.176 4.324 11.176zm-10.593 11.65h6.14l2.507-6.645h12.452l2.508 6.645h6.312L91.141 7.551h-6.615zM110.662 20.97v-8.413h5.837c2.94 0 4.756 1.64 4.756 4.185s-1.816 4.229-4.756 4.229zm-5.88 16.786h5.88v-11.78h6.442c6.096 0 10.031-3.667 10.031-9.234 0-5.566-3.935-9.19-10.031-9.19h-12.322zM143.888 38.101c7.48 0 12.539-4.832 13.23-11.09h-5.88c-.562 3.496-3.545 6.085-7.35 6.085-5.274 0-9.209-3.84-9.209-10.442s3.891-10.443 9.209-10.443c3.848 0 6.702 2.417 7.221 5.912h5.88c-.562-6.343-5.751-10.917-13.101-10.917-8.647 0-15.089 5.696-15.089 15.448S135.371 38.1 143.888 38.1M177.655 20.669H165.29V7.55h-5.88v30.205h5.88V25.674h12.365v12.082h5.88V7.551h-5.88zM192.139 22.654c0-5.998 3.935-10.443 9.512-10.443 5.578 0 9.426 4.445 9.426 10.443 0 2.89-.908 5.437-2.508 7.292l-3.113-4.272h-6.529l5.189 7.077c-.779.216-1.6.345-2.465.345-5.577 0-9.512-4.444-9.512-10.442m9.512 15.447c2.032 0 3.935-.345 5.664-.992L209.434 40h6.528l-4.107-5.566c3.199-2.762 5.145-6.904 5.145-11.78 0-8.932-6.572-15.448-15.349-15.448s-15.392 6.516-15.392 15.448S192.788 38.1 201.651 38.1"/>
</svg>
